<svg class="severe-weather-badge" version="1.1" xmlns="http://www.w3.org/2000/svg" xmlns:xlink="http://www.w3.org/1999/xlink" x="0px" y="0px" viewBox="0 0 1000 1000" enable-background="new 0 0 1000 1000" xml:space="preserve">
<g>
<path style="fill:#61efff;" d="M252.3,721c-10.6-2.8-21.2,3.3-23.4,13.9l-24.5,96.3c-2.8,10.6,3.3,21.2,13.9,23.4c1.7,0.6,3.3,0.6,5,0.6c8.4,0,16.7-5.6,18.9-14.5l24.5-96.3C269,734.4,262.9,723.8,252.3,721z"/>
<path style="fill:#61efff;"  d="M477.8,721c-10.6-2.8-21.2,3.3-23.4,13.9l-24.5,96.3c-2.8,10.6,3.3,21.2,13.9,23.4c1.7,0.6,3.3,0.6,5,0.6c8.4,0,16.7-5.6,18.9-14.5l24.5-96.3C494.5,734.4,487.8,723.8,477.8,721z"/>
<path style="fill:#61efff;"  d="M365.3,721c-10.6-2.8-21.2,3.3-23.4,13.9l-24.5,96.3c-2.8,10.6,3.3,21.2,13.9,23.4c1.7,0.6,3.3,0.6,5,0.6c8.4,0,16.7-5.6,18.9-14.5l24.5-96.3C381.5,734.4,375.3,723.8,365.3,721z"/>
<path style="fill:#61efff;"  d="M865.8,442.7c-15.6-7.2-32.3-12.8-49.6-16.7c-13.9-2.8-29-4.5-44-4.5c-36.7,0-71.3,8.9-101.3,25.1c-11.7,6.1-22.3,13.4-32.3,21.2c-50.7,39.5-83,101.3-83,170.4c0,7.8,0.6,15.6,1.1,22.8c1.1,12.8,3.9,25.6,7.8,37.9c26.2,90.2,109.7,155.9,208.2,155.9c119.7,0,217.1-97.4,217.1-217.1C989.4,551.8,938.8,477.2,865.8,442.7z M772.9,816.8c-80.7,0-149.2-54-170.9-127.5c-3.3-11.7-5.6-23.9-6.7-36.2c-0.6-5-0.6-10-0.6-15c0-55.7,25.6-105.2,65.1-138.1c9.5-7.8,20-14.5,30.6-20.6c24.5-12.8,52.9-20,82.4-20c18.9,0,36.7,2.8,54,8.4c13.9,4.5,27.3,10.6,40.1,18.4c50.7,31.7,84.6,88,84.6,152C951,736.6,871.4,816.8,772.9,816.8z"/>
<path style="fill:#61efff;"  d="M772.9,719.9c-15,0-27.3,12.3-27.3,27.3s12.2,27.3,27.3,27.3c15,0,27.3-12.2,27.3-27.3C799.6,732.2,787.9,719.9,772.9,719.9z"/>
<path style="fill:#61efff;"  d="M772.9,693.2c10.6,0,18.9-8.4,18.9-18.9v-23.9v-65.1v-66.8c0-10.6-8.9-18.9-18.9-18.9c-10.6,0-18.9,8.9-18.9,18.9v89.1v58.5v7.8C753.4,684.8,762.3,693.2,772.9,693.2z"/>
<path style="fill:#61efff;"  d="M541.3,678.7c-1.7-8.9-9.5-15.6-18.9-15.6c-70.7,0-348.5,0-348.5,0c-66.8,0-124.2-51.8-126.4-118.6c-2.8-70.2,54-128.6,123.6-128.6l0,0h17.8c10.6,0,19.5-8.9,19.5-19.5V382c0-79.6,62.4-147.5,142.5-149.8c83-2.2,151.4,64.6,151.4,147V397c0,10.6,8.9,19.5,19.5,19.5h17.8c30.1,0,57.3,10.6,78.5,28.4c6.7,5.6,15.6,5.6,22.8,1.1l0.6-0.6c10.6-7.2,11.1-22.8,1.1-30.6c-27.8-22.8-62.9-36.7-101.3-36.7c-1.1-101.3-84.1-183.7-185.4-183.7c-101.9,0-184.8,82.4-185.4,183.7C79.7,379.2,6.8,454.3,10.1,545.7c2.8,88,77.4,157,165.4,157c0,0,267.2,0,348.5,0C534.6,701.5,543.5,690.4,541.3,678.7L541.3,678.7z"/>
<path style="fill:#61efff;"  d="M456.6,199.9c21.7-11.7,45.7-17.8,70.2-17.8c80.7,0,147,65.7,147,147v17.8c0,10.6,8.9,19.5,19.5,19.5h17.8c35.1,0,62.9,12.8,85.2,36.7c1.7,1.7,2.8,3.3,4.5,5c3.3,4.5,8.9,7.2,14.5,7.8c16.7,1.1,27.3-18.4,17.3-31.7c-2.2-2.8-3.9-5.6-6.1-7.2c-29-29.5-69-47.9-113.6-48.4c-1.1-101.3-84.1-183.7-185.4-183.7c-30.6,0-60.7,7.8-88,22.3c-8.4,4.5-13.4,14.5-10,23.9C432.7,201,446,205.5,456.6,199.9z"/>
</g>
</svg>

