<svg version="1.1" id="Layer_1" xmlns="http://www.w3.org/2000/svg" xmlns:xlink="http://www.w3.org/1999/xlink" x="0px" y="0px"
	 viewBox="0 0 512 512" style="enable-background:new 0 0 512 512;" xml:space="preserve">
<polygon style="fill:#000;" points="157.555,497.147 246.67,497.147 454.652,256 246.67,14.853 157.555,14.853 365.536,256 "/>
<g>
	<path style="fill:#61efff;" d="M246.671,512h-89.115c-5.809,0-11.084-3.386-13.502-8.666c-2.419-5.28-1.539-11.487,2.256-15.886
		L345.925,256L146.308,24.553c-3.793-4.399-4.674-10.606-2.256-15.886C146.472,3.386,151.747,0,157.556,0h89.115
		c4.321,0,8.426,1.88,11.246,5.152L465.898,246.3c4.808,5.574,4.808,13.828,0,19.402l-207.98,241.147
		C255.096,510.12,250.991,512,246.671,512z M189.979,482.295h49.888L435.039,256L239.868,29.705h-49.888L376.783,246.3
		c4.808,5.574,4.808,13.828,0,19.402L189.979,482.295z"/>
	<path style="fill:#61efff;" d="M157.556,512H57.349c-5.809,0-11.084-3.386-13.502-8.666c-2.419-5.28-1.539-11.487,2.256-15.886
		l145.834-169.092c5.357-6.213,14.737-6.903,20.948-1.548c6.211,5.356,6.903,14.735,1.548,20.948L89.774,482.293h60.98
		l195.171-226.295L150.751,29.705H89.772L276.576,246.3c5.357,6.213,4.665,15.591-1.546,20.948
		c-6.213,5.359-15.591,4.664-20.948-1.548L46.101,24.553c-3.793-4.399-4.674-10.606-2.256-15.886C46.265,3.386,51.54,0,57.349,0
		h100.207c4.321,0,8.426,1.882,11.248,5.152L376.784,246.3c4.808,5.574,4.808,13.828,0,19.402l-207.98,241.147
		C165.981,510.118,161.875,512,157.556,512z"/>
</g>
<g>
</g>
<g>
</g>
<g>
</g>
<g>
</g>
<g>
</g>
<g>
</g>
<g>
</g>
<g>
</g>
<g>
</g>
<g>
</g>
<g>
</g>
<g>
</g>
<g>
</g>
<g>
</g>
<g>
</g>
</svg>
